<?xml version="1.0" standalone="no"?>
<!DOCTYPE svg PUBLIC "-//W3C//DTD SVG 20010904//EN"
 "http://www.w3.org/TR/2001/REC-SVG-20010904/DTD/svg10.dtd">
<svg version="1.0" xmlns="http://www.w3.org/2000/svg"
 width="354.000000pt" height="354.000000pt" viewBox="0 0 354.000000 354.000000"
 preserveAspectRatio="xMidYMid meet">
<metadata>
Created by potrace 1.14, written by Peter Selinger 2001-2017
</metadata>
<g transform="translate(0.000000,354.000000) scale(0.100000,-0.100000)"
fill="#000000" stroke="none">
<path d="M919 2491 c-2 -5 -45 -54 -96 -109 l-92 -100 -271 1 c-149 0 -273 -2
-276 -5 -10 -11 -9 -968 1 -971 6 -2 52 -3 104 -2 86 1 94 3 112 26 27 35 24
41 -18 39 -21 -1 -62 -2 -90 -1 l-53 1 0 425 0 425 217 0 216 0 -19 -22 c-10
-12 -28 -32 -39 -43 -22 -23 -179 -194 -244 -265 -23 -25 -41 -47 -41 -50 0
-3 11 -13 24 -22 24 -17 25 -17 67 30 23 26 86 94 139 152 54 58 109 119 125
135 15 17 66 72 114 124 47 52 107 117 133 145 26 27 46 50 45 50 -1 1 -14 11
-28 24 -15 13 -28 19 -30 13z"/>
<path d="M994 2282 c-21 -4 -64 -40 -64 -54 0 -4 36 -8 80 -8 l80 0 0 -425 c0
-333 -3 -425 -12 -425 -75 -3 -420 -1 -423 1 -2 2 19 29 47 59 99 108 134 146
213 235 44 50 86 96 93 104 11 11 10 17 -4 32 -9 11 -22 19 -27 19 -11 0 -15
-5 -132 -136 -71 -79 -166 -185 -175 -194 -3 -3 -41 -45 -85 -95 -44 -49 -82
-92 -85 -95 -42 -41 -160 -180 -160 -188 0 -6 9 -17 21 -25 19 -14 23 -12 62
31 107 119 124 137 148 162 l25 27 270 -2 c148 -1 274 0 279 2 9 3 10 272 6
903 l-1 75 -68 0 c-38 0 -77 -2 -88 -3z"/>
<path d="M2496 2279 c-100 -23 -151 -87 -151 -191 0 -58 4 -72 30 -109 41 -58
94 -84 170 -83 61 1 110 19 135 49 13 15 11 20 -9 36 -21 17 -26 18 -40 6 -45
-39 -134 -36 -179 5 -52 50 -47 158 10 201 39 29 105 32 153 8 39 -21 39 -21
59 -1 19 19 19 20 2 39 -32 36 -117 54 -180 40z"/>
<path d="M1284 2090 l0 -190 35 -1 c20 0 84 -1 143 -2 l108 -2 0 32 0 32 -107
3 -108 3 0 45 0 45 90 5 c89 5 90 5 93 32 l3 27 -93 3 -93 3 0 45 0 45 100 1
100 1 3 31 3 32 -138 0 -139 0 0 -190z"/>
<path d="M1699 2249 c-2 -159 0 -339 4 -346 4 -5 20 -8 37 -5 31 4 36 19 31
88 -2 19 4 21 69 23 102 3 139 22 164 82 25 64 5 129 -51 166 -21 14 -53 19
-140 22 l-113 3 -1 -33z m226 -62 c18 -20 21 -32 16 -59 -9 -42 -39 -58 -113
-58 l-58 0 0 68 c0 38 3 72 7 75 3 4 33 6 66 4 50 -3 64 -8 82 -30z"/>
<path d="M2139 2260 c0 -11 0 -40 0 -65 0 -25 0 -103 0 -173 l1 -128 35 4 c40
5 36 -16 36 202 1 198 4 180 -36 180 -28 0 -35 -4 -36 -20z"/>
<path d="M815 1998 c-21 -24 -63 -70 -94 -104 -161 -174 -236 -258 -240 -266
-2 -5 6 -18 17 -29 23 -21 23 -21 165 136 25 28 60 66 78 86 78 83 154 173
154 182 0 5 -9 16 -21 24 -20 13 -24 10 -59 -29z"/>
<path d="M1294 1500 l0 -190 133 0 c82 0 133 4 133 10 0 6 1 13 3 17 1 4 -50
8 -113 8 l-115 0 0 70 1 70 97 -1 c87 0 97 1 97 17 0 16 -12 19 -97 21 l-97 3
-2 62 c0 37 4 64 10 65 6 2 54 3 106 3 88 -1 116 6 104 27 -3 4 -63 8 -133 8
l-127 0 0 -190z"/>
<path d="M2847 1653 c-4 -3 -7 -19 -7 -35 0 -16 -4 -27 -9 -24 -14 9 -41 -4
-41 -20 0 -8 10 -14 25 -14 25 0 25 -1 25 -92 0 -51 3 -103 6 -115 11 -42 94
-62 131 -31 21 17 4 29 -31 22 -53 -9 -63 9 -64 120 l-1 96 45 0 c38 0 45 3
42 17 -2 13 -14 18 -43 18 -37 1 -40 3 -43 33 -3 30 -19 41 -35 25z"/>
<path d="M1650 1590 c0 -6 26 -71 58 -145 52 -123 59 -135 81 -133 20 3 33 23
82 133 32 72 58 135 58 141 1 6 -6 11 -15 11 -10 0 -26 -21 -42 -56 -69 -156
-85 -185 -90 -171 -3 8 -15 38 -27 65 -13 28 -32 72 -44 100 -20 46 -35 64
-53 65 -5 0 -8 -5 -8 -10z"/>
<path d="M2110 1593 c-84 -25 -126 -113 -93 -193 32 -79 97 -108 190 -86 37 9
56 27 47 49 -5 14 -9 13 -37 -3 -57 -33 -128 -15 -161 42 -23 37 -16 39 117
36 l107 -3 0 34 c0 42 -31 94 -67 110 -31 15 -80 21 -103 14z m84 -44 c14 -7
32 -26 40 -43 l15 -31 -91 -3 c-113 -3 -120 -1 -105 32 23 49 87 69 141 45z"/>
<path d="M2419 1596 c-1 -1 -2 -65 -3 -143 -1 -137 -1 -143 19 -143 19 0 20 7
22 94 1 52 7 104 13 116 22 41 101 53 141 21 22 -17 24 -28 26 -108 1 -48 2
-96 3 -105 0 -11 8 -18 20 -18 19 0 20 7 20 95 0 119 -15 160 -66 181 -44 19
-102 11 -139 -18 -14 -11 -25 -16 -24 -11 4 23 -3 40 -16 40 -8 0 -16 -1 -16
-1z"/>
<path d="M3140 1588 c-39 -15 -60 -39 -60 -70 0 -32 38 -78 67 -79 75 -3 113
-21 113 -54 0 -42 -70 -58 -137 -30 -29 12 -38 13 -44 3 -18 -29 44 -54 125
-50 106 5 138 109 45 146 -22 9 -50 16 -62 16 -54 0 -89 58 -48 80 26 13 87
13 113 -1 19 -10 37 0 38 22 0 18 -114 31 -150 17z"/>
</g>
</svg>
